<svg xmlns="http://www.w3.org/2000/svg" class="mx-auto mb-6" width="65" height="80" viewBox="0 0 65 80">
          <path d="M39 0a26 26 0 1 1-26 26A26 26 0 0 1 39 0z" fill="#bee3f8"></path>
          <path
            d="M24.572 80a5.474 5.474 0 0 1-5.447-5.486c0-5.663-.011-10.083-.026-14.329l-.006-1.825h3.659V32.767a7.441 7.441 0 1 1 3.614 0v25.586h3.653v16.154A5.477 5.477 0 0 1 24.572 80zm-1.837-10.719v5.232a1.834 1.834 0 1 0 3.667-.005v-5.226zm3.67-7.286H22.72v.647l.006 3h3.677v-3.649zm-1.846-40.354a3.855 3.855 0 1 0 3.827 3.859 3.845 3.845 0 0 0-3.827-3.859zM7.453 80a5.474 5.474 0 0 1-5.447-5.486L2 58.36h3.636V32.768A7.5 7.5 0 0 1 7.44 18v3.641a3.791 3.791 0 0 0-2.7 1.131 3.859 3.859 0 0 0 2.705 6.578h1.807v29h3.615v1.61c.022 7.122.032 12.017.031 14.549A5.477 5.477 0 0 1 7.453 80zM5.618 69.281v5.232a1.834 1.834 0 1 0 3.667-.005c0-1.388 0-3.244-.007-5.226zm3.643-7.286L5.614 62v3.642H9.27c-.002-1.305-.006-2.6-.009-3.647z"
            fill="#4299e1"></path>
        </svg>