<svg xmlns="http://www.w3.org/2000/svg" class="mx-auto mb-6" width="85" height="80" viewBox="0 0 85 80">
          <path d="M59 0a26 26 0 1 1-26 26A26 26 0 0 1 59 0z" fill="#bee3f8"></path>
          <path
            d="M36 80a163.974 163.974 0 0 1-34.335-3.612L0 76.031V60.4a.159.159 0 0 0 0-.022v-.031V54.806v-.118l.036-2.052h71.925L72 54.688v21.345l-1.665.355A163.974 163.974 0 0 1 36 80zM4.224 67.124v5.53A160.1 160.1 0 0 0 36 75.823a160.115 160.115 0 0 0 31.774-3.169v-5.531a7.732 7.732 0 0 1-3.536.848 7.828 7.828 0 0 1-5.647-2.42 7.73 7.73 0 0 1-5.648 2.42A7.828 7.828 0 0 1 47.3 65.55a7.73 7.73 0 0 1-5.648 2.42A7.828 7.828 0 0 1 36 65.55a7.8 7.8 0 0 1-11.3 0 7.8 7.8 0 0 1-11.3 0 7.8 7.8 0 0 1-9.184 1.573zM60.7 56.813V60.3a3.536 3.536 0 0 0 7.072 0v-3.487zm-11.3 0V60.3a3.536 3.536 0 0 0 7.071 0v-3.487zm-11.3 0V60.3a3.536 3.536 0 0 0 7.071 0v-3.487zm-11.3 0V60.3a3.536 3.536 0 0 0 7.071 0v-3.487zm-11.3 0V60.3a3.536 3.536 0 0 0 7.071 0v-3.487zm-11.3 0V60.3a3.536 3.536 0 0 0 7.071 0v-3.487zM71.961 45.33H.039L0 43.279v-5.608-.052-15.684l1.665-.357a165.051 165.051 0 0 1 68.67 0l1.665.357v15.711a.073.073 0 0 0 0 .014v5.616l-.037 2.051zM64.24 34.174a3.521 3.521 0 0 0-3.536 3.5v3.482h7.072v-3.485a3.521 3.521 0 0 0-3.536-3.497zm-11.3 0a3.521 3.521 0 0 0-3.536 3.5v3.482h7.076v-3.485a3.521 3.521 0 0 0-3.536-3.497zm-11.3 0a3.521 3.521 0 0 0-3.536 3.5v3.482h7.072v-3.485a3.521 3.521 0 0 0-3.528-3.497zm-11.3 0a3.521 3.521 0 0 0-3.536 3.5v3.482h7.071v-3.485a3.52 3.52 0 0 0-3.523-3.497zm-11.3 0a3.521 3.521 0 0 0-3.536 3.5v3.482h7.07v-3.485a3.52 3.52 0 0 0-3.518-3.497zm-11.3 0a3.521 3.521 0 0 0-3.536 3.5v3.482H11.3v-3.485a3.52 3.52 0 0 0-3.539-3.497zM52.944 30a7.831 7.831 0 0 1 5.648 2.419 7.807 7.807 0 0 1 9.185-1.573v-5.532a160.805 160.805 0 0 0-63.551 0v5.53a7.8 7.8 0 0 1 9.184 1.572A7.832 7.832 0 0 1 19.056 30a7.731 7.731 0 0 1 5.644 2.416A7.832 7.832 0 0 1 30.352 30 7.731 7.731 0 0 1 36 32.416a7.8 7.8 0 0 1 11.295 0A7.836 7.836 0 0 1 52.944 30z"
            fill="#4299e1"></path>
        </svg>
