 <svg xmlns="http://www.w3.org/2000/svg" class="mx-auto mb-6" width="82" height="80" viewBox="0 0 82 80">
          <path d="M56 0a26 26 0 1 1-26 26A26 26 0 0 1 56 0z" fill="#bee3f8"></path>
          <path
            d="M38.7 80a7.608 7.608 0 0 1-7.6-6.99 7.288 7.288 0 0 1-2.96-2.712c-.845-1.173-1.155-1.49-1.726-1.49s-.882.317-1.726 1.489c-.888 1.231-2.229 3.092-4.876 3.092s-3.988-1.859-4.875-3.089c-.852-1.18-1.162-1.5-1.737-1.5s-.881.317-1.725 1.489c-.888 1.231-2.229 3.092-4.876 3.092s-3.987-1.859-4.874-3.089C.881 69.12.571 68.8 0 68.8v-3.816c2.647 0 3.988 1.86 4.875 3.091.845 1.172 1.155 1.49 1.726 1.49s.882-.317 1.725-1.489c.888-1.231 2.229-3.092 4.876-3.092s3.989 1.86 4.876 3.091c.844 1.172 1.154 1.49 1.726 1.49s.881-.317 1.725-1.489c.888-1.231 2.229-3.092 4.877-3.092 2.3 0 3.6 1.349 4.668 2.806V40.643l2.152-4.615h-4.947V18h21.668l9.225 4.4v2.61H66v3.818h-6.828V31.1L50 36.029h-6.167l2.493 4.55v5.446h2.49v3.817h-2.49v2.673h2.49v3.818h-2.49v16.14A7.585 7.585 0 0 1 38.7 80zm-3.757-37.03v29.5a3.758 3.758 0 0 0 7.515 0v-29.5zm2.542-6.943l-1.457 3.125h5.121l-1.712-3.125zm-5.339-14.209V32.21h16.866l6.288-3.382V24.8l-6.238-2.982z"
            fill="#4299e1"></path>
        </svg>