<svg xmlns="http://www.w3.org/2000/svg" class="mx-auto mb-6" width="77" height="80" viewBox="0 0 77 80">
          <path d="M51 0a26 26 0 1 1-26 26A26 26 0 0 1 51 0z" fill="#bee3f8"></path>
          <path
            d="M18.151 80L15.2 77.577c-.405-.332-9.919-8.389-9.919-30.638 0-1.361-.746-2.485-1.778-4.042A17.122 17.122 0 0 1 0 32.542a14.367 14.367 0 0 1 4.356-10.315A14.564 14.564 0 0 1 14.616 18h.3a14.593 14.593 0 0 1 9.649 3.9.828.828 0 0 0 1.121 0 14.588 14.588 0 0 1 9.647-3.894h.3A14.564 14.564 0 0 1 45.9 22.227a14.363 14.363 0 0 1 4.356 10.314 16.084 16.084 0 0 1-3.606 10.4c-1.074 1.493-1.681 2.4-1.681 3.6a69.56 69.56 0 0 1-.125 4.163 14.746 14.746 0 0 1 7.98 5.134A14.523 14.523 0 0 1 56 64.96a14.652 14.652 0 1 1-29.3 0 14.532 14.532 0 0 1 1.4-6.253c-1.624-2.965-2.871-3.195-3.215-3.195-1.087 0-2.87 2.007-4.4 6.492a47.01 47.01 0 0 0-2.326 14.176V80zm23.2-26.1A11.061 11.061 0 1 0 52.39 64.96 11.064 11.064 0 0 0 41.348 53.9zM14.634 21.62a11 11 0 0 0-7.751 3.188 10.78 10.78 0 0 0-3.273 7.734c0 3.968 1.475 6.2 2.9 8.351 1.171 1.77 2.382 3.6 2.382 6.046 0 10.668 2.348 17.68 4.318 21.684a28.438 28.438 0 0 0 1.59 2.826 50.021 50.021 0 0 1 2.26-10.617c2-5.846 4.7-8.936 7.819-8.936 1.342 0 3.366.6 5.386 3.472a14.646 14.646 0 0 1 10.979-5.082c.07-1.241.106-2.5.106-3.743 0-2.43 1.2-4.1 2.361-5.709a12.463 12.463 0 0 0 2.926-8.293 10.779 10.779 0 0 0-3.273-7.733 10.986 10.986 0 0 0-7.736-3.19h-.229a10.992 10.992 0 0 0-7.266 2.932 4.45 4.45 0 0 1-6.025 0 10.988 10.988 0 0 0-7.265-2.932c-.067.002-.137.002-.209.002zm26.65 51.232l-6.084-6.14a4.522 4.522 0 0 1 0-6.381 4.5 4.5 0 0 1 6.1-.252 4.512 4.512 0 0 1 6.1 6.638l-6.123 6.134zM38.39 62.625a.892.892 0 0 0-.635.263.9.9 0 0 0 0 1.272l3.537 3.569 3.563-3.569a.9.9 0 0 0 0-1.272.9.9 0 0 0-1.269 0l-2.281 2.284-2.28-2.284a.9.9 0 0 0-.635-.263z"
            fill="#4299e1"></path>
        </svg>